<svg width="860" height="50" viewBox="0 0 860 50" fill="none" xmlns="http://www.w3.org/2000/svg">
<g clip-path="url(#clip0_2127_18561)">
<path d="M48.5845 17.3954H72.8984V5H48.5845V17.3954Z" fill="white"/>
<path d="M0 5V17.3954H12.1353V42.1861H24.2706V17.3954H36.4493V5H0Z" fill="white"/>
<path d="M36.4492 42.186H72.8985V29.7906H48.5845V17.3953H36.4492V42.186Z" fill="white"/>
<path d="M103.887 14.3616H86.0308V19.5191H92.0117V35.6851H97.906V19.5191H103.887V14.3616Z" fill="white"/>
<path d="M110.605 19.3457C106.401 19.3457 103.28 22.1628 103.28 27.7104C103.28 32.6079 105.924 36.0318 110.735 36.0318C113.249 36.0318 115.286 35.3817 117.236 34.2115L115.156 30.7009C113.552 31.5244 112.425 31.8277 110.995 31.8277C109.521 31.8277 108.481 31.0476 108.264 29.2707H117.669C117.713 29.0106 117.713 28.6639 117.713 28.1871C117.756 22.2495 115.026 19.3457 110.605 19.3457ZM108.351 25.8468C108.524 24.2432 109.218 23.4197 110.475 23.4197C112.078 23.4197 112.642 24.2432 112.902 25.8468H108.351Z" fill="white"/>
<path d="M128.158 31.5677C126.684 31.5677 125.904 30.2675 125.904 27.7104C125.904 25.1967 126.597 23.7664 128.028 23.7664C129.198 23.7664 129.718 24.4165 130.498 25.8468L134.269 22.9863C132.882 20.7326 131.148 19.3457 128.114 19.3457C123 19.3457 120.486 22.7263 120.486 27.6237C120.486 32.9979 123.303 35.9884 127.984 35.9884C130.801 35.9884 132.535 34.9049 134.399 32.1745L130.931 29.444C129.891 31.0043 129.198 31.5677 128.158 31.5677Z" fill="white"/>
<path d="M147.054 19.3456C145.147 19.3456 144.02 19.9957 143.023 20.7325V13.4946L137.519 15.705V35.7283H143.023V26.5834C143.023 24.5898 143.717 24.0263 144.887 24.0263C146.014 24.0263 146.707 24.5898 146.707 26.6268V35.7283H152.211V25.9333C152.211 21.7293 150.521 19.3456 147.054 19.3456Z" fill="white"/>
<path d="M165.43 30.8743C162.873 30.8743 161.833 28.2739 161.833 25.0234C161.833 21.6428 162.916 19.1724 165.387 19.1724C167.337 19.1724 168.074 20.4293 168.811 22.4229L174.185 20.2993C172.711 16.2686 170.631 14.0149 165.387 14.0149C159.666 14.0149 155.635 18.1756 155.635 25.0234C155.635 31.3511 159.016 36.0318 165.344 36.0318C170.414 36.0318 172.798 33.3014 174.228 30.5276L169.244 27.8838C168.074 29.8775 167.294 30.8743 165.43 30.8743Z" fill="white"/>
<path d="M183.07 20.8626V19.6924H177.566V35.685H183.07V26.9736C183.07 25.0233 183.894 24.3732 185.237 24.3732C186.321 24.3732 187.101 24.9366 187.794 25.7168L189.094 20.0392C188.444 19.6491 187.664 19.3457 186.494 19.3457C185.064 19.3457 183.98 19.9525 183.07 20.8626Z" fill="white"/>
<path d="M200.839 28.8372C200.839 30.8309 200.146 31.3943 199.019 31.3943C197.892 31.3943 197.199 30.8309 197.199 28.7939V19.6924H191.694V29.4873C191.694 33.6913 193.385 36.0317 196.895 36.0317C198.759 36.0317 199.929 35.3816 200.883 34.6448V35.7283H206.387V19.7357H200.883V28.8372" fill="white"/>
<path d="M219.865 19.3457C217.958 19.3457 216.832 19.9958 215.835 20.7326V19.6491H210.331V35.6417H215.835V26.4969C215.835 24.5032 216.528 23.9398 217.698 23.9398C218.825 23.9398 219.519 24.5032 219.519 26.5402V35.6417H225.023V25.8468C225.023 21.7294 223.376 19.3457 219.865 19.3457Z" fill="white"/>
<path d="M235.946 31.5677C234.472 31.5677 233.692 30.2675 233.692 27.7104C233.692 25.1967 234.385 23.7664 235.772 23.7664C236.942 23.7664 237.462 24.4165 238.243 25.8468L242.013 22.9863C240.626 20.7326 238.893 19.3457 235.859 19.3457C230.745 19.3457 228.231 22.7263 228.231 27.6237C228.231 32.9979 231.048 35.9884 235.729 35.9884C238.546 35.9884 240.28 34.9049 242.143 32.1745L238.676 29.444C237.723 31.0043 236.986 31.5677 235.946 31.5677Z" fill="white"/>
<path d="M254.842 19.3456C252.935 19.3456 251.808 19.9957 250.811 20.7325V13.4946L245.307 15.705V35.7283H250.811V26.5834C250.811 24.5898 251.504 24.0263 252.675 24.0263C253.801 24.0263 254.495 24.5898 254.495 26.6268V35.7283H259.999V25.9333C260.042 21.7293 258.352 19.3456 254.842 19.3456Z" fill="white"/>
<path d="M438.561 19.4306C438.561 15.6962 438.626 12.2193 438.82 9L428.934 10.8672V11.7686L429.903 11.8974C430.614 11.9618 431.066 12.2193 431.325 12.6056C431.583 13.0563 431.777 13.7002 431.906 14.666C432.035 16.5332 432.165 20.7827 432.1 27.4789C432.1 34.1107 432.035 38.2958 431.906 39.9054C435.46 40.6781 438.238 41 440.306 41C444.183 41 447.22 39.9054 449.416 37.6519C451.613 35.4628 452.776 32.3722 452.776 28.5734C452.776 25.5473 451.936 23.0362 450.256 21.0402C448.576 19.0443 446.444 18.0785 443.924 18.0785C442.244 18.0785 440.5 18.5292 438.561 19.4306ZM438.755 39.2616C438.626 37.2012 438.497 31.0201 438.497 20.9115C439.078 20.7183 439.854 20.5895 440.823 20.5895C442.374 20.5895 443.601 21.3622 444.506 22.9718C445.41 24.5815 445.863 26.5131 445.863 28.9598C445.863 31.9859 445.346 34.4326 444.312 36.493C443.278 38.4889 441.986 39.5191 440.371 39.5191C439.854 39.3903 439.337 39.326 438.755 39.2616ZM391.846 9.64386H366V10.9316L367.357 11.0604C368.391 11.2535 369.101 11.6398 369.554 12.2193C370.006 12.8632 370.265 13.8934 370.329 15.3099C370.846 22.2636 370.846 28.7666 370.329 34.7545C370.2 36.171 369.941 37.2012 369.554 37.8451C369.101 38.4889 368.391 38.8752 367.357 39.004L366 39.1972V40.4849H382.67V39.1972L380.926 39.0684C379.892 38.9396 379.181 38.4889 378.729 37.9095C378.277 37.2656 378.018 36.2354 377.954 34.8189C377.76 32.2435 377.63 29.2817 377.63 25.998L381.12 26.0624C382.993 26.1268 384.286 27.5433 384.932 30.3763H386.224V19.8813H384.932C384.286 22.6499 383.058 24.0664 381.12 24.1308L377.63 24.1952C377.63 18.4004 377.76 14.2797 377.954 11.7686H383.058C386.676 11.7686 389.132 14.0865 390.553 18.7223L392.104 18.2716L391.846 9.64386ZM388.809 29.4748C388.809 32.8229 389.778 35.5915 391.652 37.7807C393.525 39.9698 396.304 41 399.793 41C403.282 41 406.125 39.9054 408.193 37.6519C410.26 35.4628 411.23 32.6942 411.23 29.3461C411.23 25.998 410.26 23.2294 408.387 21.0402C406.513 18.8511 403.734 17.8209 400.245 17.8209C396.756 17.8209 393.913 18.9155 391.846 21.169C389.778 23.3581 388.809 26.1268 388.809 29.4748ZM403.218 22.1348C403.993 24.002 404.316 26.4487 404.316 29.4105C404.316 36.2354 402.894 39.5835 400.116 39.5835C398.695 39.5835 397.596 38.6177 396.821 36.6861C396.045 34.7545 395.722 32.3078 395.722 29.4105C395.722 22.6499 397.144 19.3018 399.922 19.3018C401.344 19.2374 402.442 20.2032 403.218 22.1348ZM457.816 37.7807C459.949 39.9054 462.662 41 465.893 41C467.896 41 469.641 40.6137 471.191 39.7767C472.742 39.004 473.97 38.0382 474.81 36.8793L474.164 36.1066C472.742 37.2012 471.127 37.7163 469.253 37.7163C466.668 37.7163 464.665 36.8793 463.308 35.1408C461.887 33.4024 461.241 31.2133 461.37 28.3803H475.197C475.197 25.2897 474.422 22.7787 472.807 20.7827C471.191 18.8511 468.93 17.8853 466.022 17.8853C462.404 17.8853 459.625 19.0443 457.622 21.2978C455.619 23.5513 454.65 26.3199 454.65 29.6036C454.65 32.9517 455.684 35.6559 457.816 37.7807ZM462.598 21.6197C463.308 20.0744 464.213 19.3018 465.441 19.3018C467.379 19.3018 468.348 21.7485 468.348 26.7062L461.499 26.835C461.564 24.9034 461.887 23.165 462.598 21.6197ZM492.578 19.0443C490.834 18.2716 488.637 17.8209 485.988 17.8209C483.274 17.8209 481.142 18.5292 479.526 19.8813C477.911 21.2334 477.071 22.9074 477.071 24.9034C477.071 26.6419 477.588 27.994 478.557 28.9598C479.526 29.9256 481.077 30.7626 483.08 31.4708C484.889 32.1147 486.182 32.7585 486.828 33.338C487.474 33.9819 487.862 34.6901 487.862 35.6559C487.862 36.5573 487.539 37.3944 486.828 38.0382C486.182 38.7465 485.277 39.0684 484.114 39.0684C481.271 39.0684 479.139 37.008 477.653 32.8873L476.554 33.2093L476.813 39.6479C479.139 40.5493 481.723 41 484.566 41C487.539 41 489.8 40.3561 491.48 39.004C493.16 37.7163 494 35.8491 494 33.5312C494 31.9859 493.612 30.6982 492.772 29.7324C491.932 28.7666 490.575 27.9296 488.637 27.1569C486.505 26.3843 485.019 25.6761 484.243 25.0322C483.468 24.3883 483.08 23.6157 483.08 22.6499C483.08 21.6841 483.339 20.9115 483.92 20.2676C484.502 19.6237 485.213 19.3662 486.117 19.3662C488.702 19.3662 490.575 21.2334 491.739 24.9034L492.837 24.5815L492.578 19.0443ZM430.42 18.4648C429.515 18.0141 428.546 17.8209 427.448 17.8209C426.349 17.8209 425.251 18.2716 424.023 19.173C422.796 20.0744 421.891 21.2978 421.18 22.9718L421.245 17.8209L411.424 19.7525V20.6539L412.393 20.7183C413.62 20.8471 414.331 21.8129 414.46 23.5513C414.848 27.5433 414.848 31.7928 414.46 36.2998C414.331 38.0382 413.62 38.9396 412.393 39.1328L411.424 39.2616V40.4849H425.122V39.2616L423.377 39.1328C422.149 39.004 421.439 38.0382 421.309 36.2998C420.922 32.5654 420.857 28.5734 421.18 24.4527C421.568 23.8089 422.408 23.4225 423.7 23.2938C424.992 23.165 426.479 23.5513 428.029 24.4527L430.42 18.4648Z" fill="white"/>
<path fill-rule="evenodd" clip-rule="evenodd" d="M605.294 27.119H610.336C614.622 27.119 616.639 28.2046 616.639 31.2944C616.639 35.1357 612.857 35.6367 610.168 35.6367H605.294V27.119ZM600 40.1461H610.672C616.303 40.1461 621.849 38.142 621.849 31.7119C621.849 27.9541 619.16 25.0313 615.462 24.6138V24.5303C618.487 23.6117 620.588 21.4405 620.588 18.1002C620.588 12.7557 615.966 10.6681 611.513 10.6681H600V40.1461ZM605.294 15.1775H609.664C613.613 15.1775 615.378 16.4301 615.378 18.9353C615.378 21.1065 613.613 22.6096 610.084 22.6096H605.294V15.1775ZM625.294 40.1461H630.336V10H625.294V40.1461ZM633.697 30.1253C633.697 36.3883 638.571 40.5637 644.622 40.5637C650.672 40.5637 655.546 36.3883 655.546 30.1253C655.546 23.8622 650.672 19.6868 644.622 19.6868C638.487 19.6868 633.697 23.8622 633.697 30.1253ZM638.655 30.1253C638.655 27.0355 640.84 24.1127 644.538 24.1127C648.235 24.1127 650.42 26.952 650.42 30.1253C650.42 33.2985 648.235 36.1378 644.538 36.1378C640.924 36.1378 638.655 33.2985 638.655 30.1253ZM657.731 30.1253C657.731 36.3883 662.605 40.5637 668.655 40.5637C674.706 40.5637 679.58 36.3883 679.58 30.1253C679.58 23.8622 674.706 19.6868 668.655 19.6868C662.605 19.6868 657.731 23.8622 657.731 30.1253ZM662.773 30.1253C662.773 27.0355 664.958 24.1127 668.655 24.1127C672.353 24.1127 674.538 26.952 674.538 30.1253C674.538 33.2985 672.353 36.1378 668.655 36.1378C664.958 36.1378 662.773 33.2985 662.773 30.1253ZM682.689 20.1879H687.479V23.2777H687.563C688.403 21.4405 690.336 19.6868 693.697 19.6868C696.807 19.6868 698.908 20.8559 700 23.3612C701.429 20.8559 703.613 19.6868 706.639 19.6868C712.017 19.6868 713.866 23.4447 713.866 28.2046V40.0626H708.824V28.7891C708.824 26.2839 708.067 24.1127 705.126 24.1127C702.017 24.1127 700.84 26.7015 700.84 29.2902V40.0626H695.798V28.2046C695.798 25.7829 694.79 24.1127 692.353 24.1127C689.076 24.1127 687.731 26.5344 687.731 29.2067V40.0626H682.689V20.1879ZM717.815 40.1461H722.605V37.1399H722.689C724.118 39.5616 726.807 40.6472 729.58 40.6472C735.798 40.6472 739.496 36.0543 739.496 30.2088C739.496 24.2797 735.546 19.7704 729.832 19.7704C726.05 19.7704 724.034 21.524 723.025 22.7766H722.941V10H717.899L717.815 40.1461ZM734.454 30.1253C734.454 33.215 732.269 36.1378 728.571 36.1378C724.874 36.1378 722.689 33.2985 722.689 30.1253C722.689 27.0355 724.874 24.1127 728.571 24.1127C732.269 24.1962 734.454 27.0355 734.454 30.1253ZM762.101 31.8789V30.5428C762.101 23.6117 758.319 19.6868 752.689 19.6868C746.639 19.6868 741.765 23.8622 741.765 30.1253C741.765 36.3883 746.639 40.5637 752.689 40.5637C755.882 40.5637 758.824 39.4781 761.176 36.5553L757.563 33.8831C756.303 35.3862 754.706 36.5553 752.185 36.5553C749.412 36.5553 747.143 34.8017 746.807 31.7954C746.807 31.8789 762.101 31.8789 762.101 31.8789ZM746.807 28.1211C747.143 25.2818 748.992 23.3612 752.017 23.3612C755.126 23.3612 757.059 25.1983 757.143 28.1211H746.807ZM765.378 20.1879H770.42V23.3612H770.504C771.597 21.1065 773.782 19.6868 776.471 19.6868C777.059 19.6868 777.647 19.8539 778.235 19.9374V24.7808C777.395 24.6138 776.639 24.4468 775.798 24.4468C771.092 24.4468 770.42 28.3716 770.42 29.4572V40.1461H765.378V20.1879ZM795.294 20.1879V23.1942H795.21C793.782 20.7724 791.092 19.6868 788.319 19.6868C782.101 19.6868 778.403 24.2797 778.403 30.1253C778.403 35.8038 782.353 40.3132 788.403 40.3132C790.924 40.3132 793.529 39.3946 794.958 37.3904H795.042V38.81C795.042 42.7349 793.529 45.4906 788.655 45.4906C785.882 45.4906 783.782 44.4885 781.765 42.6514L778.74 46.7432C781.597 49.2484 784.958 50 788.655 50C796.471 50 800 45.4071 800 38.2255V20.1879H795.294ZM789.412 24.1962C793.025 24.1962 795.378 26.618 795.378 30.0418C795.378 33.382 793.109 35.8873 789.412 35.8873C786.05 35.8873 783.529 33.2985 783.529 30.1253C783.445 26.5344 785.882 24.1962 789.412 24.1962Z" fill="white"/>
</g>
<defs>
<clipPath id="clip0_2127_18561">
<rect width="860" height="50" fill="white"/>
</clipPath>
</defs>
</svg>
