<svg width="231" height="58" viewBox="0 0 231 58" fill="none" xmlns="http://www.w3.org/2000/svg">
<g clip-path="url(#clip0_1663_7804)">
<path d="M111.415 51.9164C111.831 51.7569 112.2 51.5482 112.469 51.2294C112.788 50.8493 112.96 50.3587 112.96 49.7454C112.96 48.985 112.69 48.3595 112.163 47.8811C111.623 47.4028 110.875 47.1699 109.881 47.1699H106.141V56.6628H109.918C110.556 56.6628 111.12 56.5646 111.586 56.3807C112.052 56.1845 112.42 55.9146 112.678 55.5345C112.935 55.1541 113.07 54.7125 113.07 54.1852C113.07 53.5475 112.899 53.0324 112.543 52.6398C112.249 52.321 111.868 52.088 111.427 51.9164H111.415ZM107.772 48.5926H109.82C110.164 48.5926 110.433 48.6539 110.654 48.7888C110.875 48.9238 111.034 49.0954 111.145 49.2916C111.255 49.5 111.304 49.7209 111.304 49.9661C111.304 50.322 111.181 50.6286 110.936 50.8982C110.691 51.1681 110.323 51.3031 109.82 51.3031H107.747V48.5926H107.772ZM111.034 54.8967C110.765 55.1296 110.409 55.2523 109.955 55.2523H107.772V52.5664H109.955C110.384 52.5664 110.728 52.6891 111.01 52.9342C111.292 53.1796 111.427 53.5108 111.427 53.9276C111.427 54.3447 111.292 54.6758 111.022 54.909L111.034 54.8967Z" fill="#D6FD3A"/>
<path d="M120.735 53.1552C120.735 53.5968 120.637 53.9769 120.441 54.2835C120.245 54.5901 119.975 54.8233 119.656 54.995C119.337 55.1544 118.969 55.2401 118.577 55.2401C118.294 55.2401 118.013 55.2034 117.755 55.1177C117.497 55.0317 117.264 54.909 117.068 54.7373C116.872 54.5656 116.712 54.3572 116.59 54.0996C116.479 53.8419 116.418 53.523 116.418 53.1674V47.1577H114.75V53.2164C114.75 53.8174 114.86 54.345 115.057 54.7863C115.265 55.2401 115.547 55.6082 115.903 55.9149C116.258 56.2215 116.663 56.4422 117.129 56.6016C117.583 56.7488 118.074 56.8345 118.577 56.8345C119.079 56.8345 119.57 56.7611 120.036 56.6016C120.49 56.4544 120.907 56.2215 121.263 55.9149C121.618 55.6082 121.9 55.2279 122.109 54.7741C122.317 54.3202 122.416 53.8052 122.416 53.2164V47.1577H120.747V53.1674L120.735 53.1552Z" fill="#D6FD3A"/>
<path d="M128.437 51.3152L126.892 50.9228C126.549 50.8246 126.279 50.6897 126.07 50.5057C125.874 50.3218 125.776 50.0642 125.776 49.7453C125.776 49.3652 125.911 49.0585 126.193 48.8134C126.475 48.568 126.855 48.4575 127.333 48.4575C127.787 48.4575 128.155 48.568 128.425 48.7764C128.707 48.9973 128.867 49.3284 128.891 49.77H130.535C130.51 49.218 130.363 48.7274 130.093 48.3103C129.823 47.8935 129.467 47.5746 129.014 47.3415C128.548 47.1085 128.008 46.9858 127.382 46.9858C126.757 46.9858 126.156 47.1085 125.678 47.3415C125.187 47.5746 124.807 47.918 124.537 48.3473C124.267 48.7764 124.132 49.267 124.132 49.8068C124.132 50.42 124.316 50.9473 124.697 51.4134C125.077 51.8795 125.69 52.2351 126.549 52.4682L128.082 52.8851C128.45 52.9833 128.719 53.1305 128.916 53.3144C129.112 53.4984 129.198 53.7438 129.198 54.0504C129.198 54.4305 129.038 54.7371 128.732 54.9703C128.425 55.2032 127.984 55.3259 127.419 55.3259C126.855 55.3259 126.45 55.2155 126.131 54.9825C125.813 54.7494 125.641 54.4427 125.641 54.0382H124.01C124.034 54.6022 124.194 55.0927 124.476 55.5098C124.758 55.9269 125.15 56.2581 125.653 56.4787C126.156 56.6996 126.732 56.8221 127.395 56.8221C128.057 56.8221 128.682 56.6996 129.198 56.4665C129.713 56.2336 130.117 55.9022 130.412 55.4731C130.706 55.0438 130.853 54.5532 130.853 54.0012C130.853 53.3634 130.657 52.8116 130.265 52.3333C129.872 51.855 129.271 51.5116 128.45 51.3029L128.437 51.3152Z" fill="#D6FD3A"/>
<path d="M134.287 47.1577H132.619V56.6628H134.287V47.1577Z" fill="#D6FD3A"/>
<path d="M142.677 54.0139L138.213 47.1577H136.557V56.6628H138.213V49.8192L142.677 56.6628H144.308V47.1577H142.677V54.0139Z" fill="#D6FD3A"/>
<path d="M146.661 56.6628H152.561V55.0929H148.305V52.6034H152.119V51.1314H148.305V48.7276H152.561V47.1577H146.661V56.6628Z" fill="#D6FD3A"/>
<path d="M158.386 51.3152L156.841 50.9228C156.498 50.8246 156.228 50.6897 156.019 50.5057C155.823 50.3218 155.725 50.0642 155.725 49.7453C155.725 49.3652 155.86 49.0585 156.142 48.8134C156.424 48.5802 156.804 48.4575 157.283 48.4575C157.736 48.4575 158.104 48.568 158.386 48.7764C158.669 48.9973 158.816 49.3284 158.853 49.77H160.496C160.471 49.218 160.324 48.7274 160.055 48.3103C159.797 47.8935 159.429 47.5746 158.975 47.3415C158.509 47.1085 157.97 46.9858 157.356 46.9858C156.743 46.9858 156.13 47.1085 155.652 47.3415C155.161 47.5746 154.781 47.918 154.511 48.3473C154.241 48.7764 154.106 49.267 154.106 49.8068C154.106 50.42 154.29 50.9473 154.67 51.4134C155.05 51.8795 155.664 52.2351 156.522 52.4682L158.055 52.8851C158.423 52.9833 158.693 53.1305 158.889 53.3144C159.086 53.4984 159.171 53.7438 159.171 54.0504C159.171 54.4305 159.012 54.7371 158.705 54.9703C158.399 55.2032 157.957 55.3259 157.393 55.3259C156.829 55.3259 156.424 55.2155 156.105 54.9825C155.786 54.7494 155.615 54.4427 155.615 54.0382H153.983C154.008 54.6022 154.168 55.0927 154.449 55.5098C154.732 55.9269 155.124 56.2581 155.627 56.4787C156.13 56.6996 156.706 56.8221 157.369 56.8221C158.031 56.8221 158.656 56.6996 159.171 56.4665C159.687 56.2336 160.091 55.9022 160.386 55.4731C160.68 55.0438 160.815 54.5532 160.815 54.0012C160.815 53.3634 160.619 52.8116 160.226 52.3333C159.834 51.855 159.233 51.5116 158.411 51.3029L158.386 51.3152Z" fill="#D6FD3A"/>
<path d="M166.346 51.3152L164.8 50.9228C164.457 50.8246 164.175 50.6897 163.978 50.5057C163.782 50.3218 163.684 50.0642 163.684 49.7453C163.684 49.3652 163.819 49.0585 164.101 48.8134C164.383 48.5802 164.763 48.4575 165.242 48.4575C165.696 48.4575 166.063 48.568 166.346 48.7764C166.628 48.9973 166.787 49.3284 166.812 49.77H168.443C168.418 49.218 168.271 48.7274 168.014 48.3103C167.744 47.8935 167.388 47.5746 166.922 47.3415C166.468 47.1085 165.916 46.9858 165.291 46.9858C164.665 46.9858 164.077 47.1085 163.586 47.3415C163.095 47.5746 162.715 47.918 162.445 48.3473C162.175 48.7764 162.041 49.267 162.041 49.8068C162.041 50.42 162.225 50.9473 162.605 51.4134C162.985 51.8795 163.598 52.2351 164.457 52.4682L165.99 52.8851C166.358 52.9833 166.628 53.1305 166.824 53.3144C167.02 53.4984 167.106 53.7438 167.106 54.0504C167.106 54.4305 166.947 54.7371 166.64 54.9703C166.333 55.2032 165.892 55.3259 165.327 55.3259C164.763 55.3259 164.359 55.2155 164.04 54.9825C163.721 54.7494 163.549 54.4427 163.549 54.0382H161.918C161.942 54.6022 162.102 55.0927 162.384 55.5098C162.666 55.9269 163.059 56.2581 163.561 56.4787C164.064 56.6996 164.641 56.8221 165.303 56.8221C165.965 56.8221 166.591 56.6996 167.106 56.4665C167.621 56.2336 168.026 55.9022 168.32 55.4731C168.614 55.0438 168.762 54.5532 168.762 54.0012C168.762 53.3634 168.565 52.8116 168.173 52.3333C167.78 51.855 167.179 51.5116 166.358 51.3029L166.346 51.3152Z" fill="#D6FD3A"/>
<path d="M178.07 51.3152L176.525 50.9228C176.181 50.8246 175.911 50.6897 175.703 50.5057C175.507 50.3218 175.409 50.0642 175.409 49.7453C175.409 49.3652 175.544 49.0585 175.826 48.8134C176.108 48.5802 176.488 48.4575 176.966 48.4575C177.42 48.4575 177.788 48.568 178.07 48.7764C178.352 48.9973 178.499 49.3284 178.536 49.77H180.18C180.155 49.218 180.008 48.7274 179.738 48.3103C179.481 47.8935 179.113 47.5746 178.659 47.3415C178.193 47.1085 177.653 46.9858 177.04 46.9858C176.427 46.9858 175.813 47.1085 175.335 47.3415C174.844 47.5746 174.464 47.918 174.194 48.3473C173.925 48.7764 173.79 49.267 173.79 49.8068C173.79 50.42 173.974 50.9473 174.354 51.4134C174.734 51.8795 175.347 52.2351 176.206 52.4682L177.739 52.8851C178.107 52.9833 178.377 53.1305 178.573 53.3144C178.769 53.4984 178.855 53.7438 178.855 54.0504C178.855 54.4305 178.696 54.7371 178.389 54.9703C178.082 55.2032 177.641 55.3259 177.077 55.3259C176.512 55.3259 176.108 55.2155 175.789 54.9825C175.47 54.7494 175.298 54.4427 175.298 54.0382H173.667C173.691 54.6022 173.851 55.0927 174.133 55.5098C174.415 55.9269 174.808 56.2581 175.31 56.4787C175.813 56.6996 176.39 56.8221 177.052 56.8221C177.714 56.8221 178.34 56.6996 178.855 56.4665C179.37 56.2336 179.775 55.9022 180.069 55.4731C180.363 55.0438 180.498 54.5532 180.498 54.0012C180.498 53.3634 180.302 52.8116 179.91 52.3333C179.517 51.855 178.916 51.5116 178.095 51.3029L178.07 51.3152Z" fill="#D6FD3A"/>
<path d="M187.93 54.7126C187.452 55.0193 186.912 55.1787 186.299 55.1787C185.735 55.1787 185.244 55.0438 184.815 54.7861C184.386 54.5287 184.054 54.1484 183.809 53.6578C183.576 53.1672 183.453 52.5907 183.453 51.904C183.453 51.2172 183.564 50.6529 183.797 50.1624C184.03 49.6718 184.349 49.2792 184.778 49.0096C185.207 48.7397 185.71 48.6047 186.299 48.6047C186.887 48.6047 187.378 48.7519 187.82 49.0463C188.261 49.3407 188.556 49.77 188.715 50.3341H190.481C190.383 49.6596 190.138 49.0708 189.758 48.568C189.377 48.0652 188.887 47.6726 188.31 47.4029C187.734 47.133 187.072 46.9858 186.348 46.9858C185.428 46.9858 184.619 47.1943 183.92 47.5991C183.22 48.0159 182.669 48.5802 182.288 49.3162C181.908 50.0519 181.712 50.9106 181.712 51.904C181.712 52.8973 181.908 53.805 182.288 54.541C182.669 55.2769 183.208 55.8287 183.895 56.2211C184.582 56.6137 185.367 56.8098 186.274 56.8098C187.022 56.8098 187.697 56.6749 188.31 56.4053C188.923 56.1354 189.426 55.7428 189.843 55.2399C190.248 54.7371 190.518 54.1484 190.641 53.4861H188.911C188.739 53.9889 188.421 54.3938 187.942 54.7126H187.93Z" fill="#D6FD3A"/>
<path d="M198.169 51.1192H194.048V47.1577H192.38V56.6628H194.048V52.6034H198.169V56.6628H199.825V47.1577H198.169V51.1192Z" fill="#D6FD3A"/>
<path d="M208.583 47.6114C207.884 47.1943 207.087 46.9858 206.167 46.9858C205.247 46.9858 204.437 47.1943 203.751 47.6236C203.051 48.0529 202.524 48.6292 202.144 49.3774C201.764 50.1134 201.567 50.9596 201.567 51.9162C201.567 52.8728 201.764 53.707 202.144 54.4427C202.524 55.1787 203.064 55.7675 203.751 56.1843C204.437 56.6014 205.247 56.8098 206.167 56.8098C207.087 56.8098 207.896 56.6014 208.595 56.1843C209.282 55.7675 209.821 55.1787 210.202 54.4427C210.582 53.707 210.778 52.8606 210.778 51.904C210.778 50.9473 210.594 50.1012 210.202 49.3652C209.821 48.6292 209.282 48.0407 208.595 47.6236L208.583 47.6114ZM208.669 53.6333C208.436 54.1239 208.104 54.5042 207.675 54.7739C207.246 55.0438 206.743 55.1787 206.154 55.1787C205.566 55.1787 205.075 55.0438 204.646 54.7739C204.217 54.5042 203.885 54.1239 203.652 53.6333C203.419 53.1427 203.297 52.554 203.297 51.8917C203.297 51.2295 203.419 50.6285 203.652 50.1379C203.885 49.6473 204.217 49.267 204.646 48.9973C205.075 48.7274 205.578 48.5925 206.154 48.5925C206.731 48.5925 207.246 48.7274 207.675 48.9973C208.104 49.267 208.436 49.6473 208.669 50.1379C208.902 50.6285 209.024 51.205 209.024 51.8917C209.024 52.5785 208.902 53.1427 208.669 53.6333Z" fill="#D6FD3A"/>
<path d="M219.056 47.6114C218.356 47.1943 217.559 46.9858 216.64 46.9858C215.72 46.9858 214.91 47.1943 214.223 47.6236C213.524 48.0529 212.997 48.6292 212.617 49.3774C212.236 50.1134 212.04 50.9596 212.04 51.9162C212.04 52.8728 212.236 53.707 212.617 54.4427C212.997 55.1787 213.536 55.7675 214.223 56.1843C214.91 56.6014 215.72 56.8098 216.64 56.8098C217.559 56.8098 218.381 56.6014 219.068 56.1843C219.755 55.7675 220.294 55.1787 220.674 54.4427C221.055 53.707 221.251 52.8606 221.251 51.904C221.251 50.9473 221.055 50.1012 220.674 49.3652C220.294 48.6292 219.755 48.0407 219.068 47.6236L219.056 47.6114ZM219.141 53.6333C218.908 54.1239 218.577 54.5042 218.148 54.7739C217.719 55.0438 217.216 55.1787 216.627 55.1787C216.039 55.1787 215.536 55.0438 215.106 54.7739C214.677 54.5042 214.346 54.1239 214.113 53.6333C213.88 53.1427 213.757 52.554 213.757 51.8917C213.757 51.2295 213.868 50.6285 214.113 50.1379C214.358 49.6473 214.677 49.267 215.106 48.9973C215.536 48.7274 216.039 48.5925 216.627 48.5925C217.216 48.5925 217.719 48.7274 218.148 48.9973C218.577 49.267 218.908 49.6473 219.141 50.1379C219.374 50.6285 219.497 51.205 219.497 51.8917C219.497 52.5785 219.387 53.1427 219.141 53.6333Z" fill="#D6FD3A"/>
<path d="M224.734 55.1667V47.1577H223.054V56.6628H223.324H224.734H228.537V55.1667H224.734Z" fill="#D6FD3A"/>
<path d="M59.1906 27.2439C59.1906 30.1243 58.5671 32.3439 57.3077 33.8901C56.0483 35.4366 54.1901 36.222 51.7212 36.222C49.8133 36.222 48.2421 35.636 47.0077 34.4513C45.7732 33.2667 45.1498 31.147 45.1498 28.0794V12.7666H39.875V29.8251C39.875 33.1544 40.7355 35.8355 42.4561 37.8432C44.1771 39.8631 46.6459 40.8733 49.8633 40.8733C51.8832 40.8733 53.7414 40.4368 55.4495 39.5764C57.1455 38.7159 58.3924 37.5812 59.1781 36.1473L59.5146 40.1873H64.3904V12.7666H59.1781V27.2439H59.1906Z" fill="white"/>
<path d="M93.4324 17.305C92.6592 15.846 91.5745 14.6616 90.1403 13.7511C88.2824 12.5667 86.1252 11.9805 83.6561 11.9805C81.0375 11.9805 78.7556 12.5914 76.8104 13.8261C74.865 15.0606 73.3563 16.719 72.2964 18.7889C71.2364 20.8713 70.7002 23.1907 70.7002 25.7718C70.7002 28.3532 71.2239 30.6726 72.2714 32.73C73.3188 34.7874 74.8028 36.4211 76.7107 37.643C78.6183 38.865 80.863 39.4637 83.4441 39.4637C86.0255 39.4637 88.1079 38.8775 90.0033 37.693C91.3997 36.8326 92.4847 35.7226 93.2579 34.3884V39.8502C93.2579 42.4313 92.4847 44.5137 90.9633 46.0849C89.4296 47.6561 87.3472 48.4418 84.7285 48.4418C82.4467 48.4418 80.5512 47.8806 79.0673 46.7584C77.5709 45.6362 76.6482 44.065 76.3114 42.0448H71.0992C71.3984 44.3267 72.1591 46.2969 73.3688 47.9678C74.5783 49.6265 76.1494 50.9232 78.0574 51.8334C79.9653 52.7563 82.1099 53.2051 84.5166 53.2051C87.3222 53.2051 89.7663 52.6316 91.8362 51.4719C93.9186 50.3122 95.5273 48.6788 96.662 46.5589C97.8092 44.439 98.3704 41.9451 98.3704 39.0645V12.7662H93.8314L93.4449 17.2925L93.4324 17.305ZM91.8862 30.2486C91.1877 31.6451 90.1903 32.7675 88.8809 33.6155C87.5717 34.4632 86.038 34.8747 84.2796 34.8747C82.6336 34.8747 81.1872 34.4632 79.9278 33.6402C78.6808 32.8173 77.7081 31.7201 77.0349 30.3359C76.3614 28.9517 76.0247 27.393 76.0247 25.6721C76.0247 23.9514 76.3614 22.4675 77.0349 21.0958C77.7081 19.7241 78.6558 18.6394 79.8903 17.8162C81.1247 16.9932 82.5839 16.5818 84.2671 16.5818C86.1002 16.5818 87.6464 16.9932 88.9309 17.8162C90.2028 18.6394 91.1877 19.7366 91.8737 21.0958C92.5594 22.455 92.9087 23.9887 92.9087 25.6721C92.9087 27.3555 92.5594 28.8394 91.8737 30.2486H91.8862Z" fill="white"/>
<path d="M137.189 12.0434C134.72 12.0434 132.637 12.6918 130.954 13.976C129.719 14.9237 128.834 16.1084 128.286 17.5299C127.687 16.1084 126.789 14.9237 125.604 13.976C123.983 12.6918 121.876 12.0434 119.295 12.0434C117.387 12.0434 115.654 12.5171 114.107 13.4398C112.898 14.163 111.975 15.1232 111.327 16.2954L110.94 12.8163H106.227V40.2496H111.501V23.7523C111.501 22.3306 111.788 21.0837 112.337 19.999C112.898 18.914 113.671 18.0786 114.669 17.5051C115.654 16.9314 116.813 16.6321 118.123 16.6321C119.993 16.6321 121.477 17.2181 122.587 18.3778C123.697 19.5375 124.245 21.1959 124.245 23.3658V40.2496H129.408V23.8021C129.408 22.3431 129.682 21.0712 130.243 19.9865C130.804 18.9015 131.577 18.0661 132.575 17.4926C133.56 16.9189 134.72 16.6196 136.029 16.6196C137.862 16.6196 139.334 17.2056 140.431 18.3903C141.528 19.5625 142.089 21.2209 142.089 23.3533V40.2371H147.189V22.2186C147.189 19.0388 146.304 16.5449 144.546 14.7242C142.788 12.9161 140.331 12.0059 137.201 12.0059L137.189 12.0434Z" fill="white"/>
<path d="M176.244 36.4961C177.441 35.1119 178.239 33.491 178.663 31.6206H173.725C173.313 33.0045 172.403 34.1395 171.006 35.0372C169.61 35.9349 167.951 36.3839 166.044 36.3839C163.762 36.3839 161.903 35.6982 160.457 34.339C159.011 32.9798 158.225 30.9596 158.075 28.3035H178.613V26.3958C178.613 23.4777 178.102 20.9466 177.067 18.7892C176.032 16.6446 174.573 14.9611 172.69 13.7639C170.807 12.567 168.55 11.9683 165.931 11.9683C163.313 11.9683 161.131 12.567 159.173 13.7639C157.202 14.9611 155.681 16.6445 154.596 18.8142C153.512 20.9838 152.963 23.5527 152.963 26.5078C152.963 29.4632 153.499 31.9198 154.596 34.0895C155.681 36.2591 157.202 37.9301 159.173 39.1148C161.143 40.2995 163.412 40.8854 165.994 40.8854C168.088 40.8854 170.021 40.4989 171.805 39.7382C173.588 38.9775 175.072 37.8928 176.269 36.5086L176.244 36.4961ZM160.395 18.54C161.829 17.1183 163.637 16.4076 165.807 16.4076C167.228 16.4076 168.5 16.7193 169.622 17.3303C170.745 17.9412 171.642 18.8639 172.316 20.0861C172.989 21.3081 173.338 22.8668 173.376 24.7747H158.113C158.188 22.0438 158.948 19.9739 160.382 18.54H160.395Z" fill="white"/>
<path d="M204.524 24.6124V40.2117H209.799V23.4277C209.799 19.9861 208.963 17.2177 207.305 15.1228C205.647 13.0279 202.953 11.9805 199.25 11.9805C197.342 11.9805 195.571 12.417 193.95 13.3024C192.329 14.1876 191.057 15.4096 190.159 16.9807L189.598 12.7662H184.822V40.1494H190.097V25.6721C190.097 24.1384 190.296 22.8042 190.72 21.657C191.132 20.5223 191.705 19.5871 192.429 18.8762C193.152 18.1654 194 17.6417 194.96 17.305C195.908 16.9685 196.893 16.7937 197.903 16.7937C198.726 16.7937 199.524 16.906 200.31 17.1305C201.095 17.355 201.806 17.754 202.442 18.3152C203.078 18.8761 203.589 19.6619 203.951 20.6718C204.325 21.682 204.512 22.9912 204.512 24.5999L204.524 24.6124Z" fill="white"/>
<path d="M229.526 16.663H224.236C224.236 43.5439 220.342 43.8179 220.342 16.663H213.92V12.7824H215.978C219.821 12.5096 221.198 9.57112 221.161 4.92188H225.574C225.574 9.21168 224.235 12.1997 222.227 12.7824H229.526V16.663Z" fill="white" stroke="white" stroke-width="1.17099"/>
<path d="M229.683 17.014V12.6372H224.346H219.134H213.747V17.014H219.134V40.0827H224.346V17.014H229.683Z" fill="white"/>
<path d="M17.3118 5.90258L5.22251 40.2121H-0.563477L14.3128 -0.364014H20.3108L35.1871 40.2121H29.4011L17.3118 5.90258Z" fill="white"/>
</g>
<defs>
<clipPath id="clip0_1663_7804">
<rect width="231.818" height="58.3101" fill="white" transform="translate(-1.36328 -0.681885)"/>
</clipPath>
</defs>
</svg>
